<?xml version="1.0" encoding="utf-8"?>
<!-- Generator: Adobe Illustrator 23.0.3, SVG Export Plug-In . SVG Version: 6.00 Build 0)  -->
<svg version="1.1" id="Capa_1" xmlns="http://www.w3.org/2000/svg" xmlns:xlink="http://www.w3.org/1999/xlink" x="0px" y="0px"
	 viewBox="0 0 512 512" style="enable-background:new 0 0 512 512;" xml:space="preserve">
<style type="text/css">
	.st0{fill:#7CC242;stroke:#FFFFFF;stroke-width:17;stroke-miterlimit:10;}
	.st1{fill:#FFFFFF;}
</style>
<g>
	<path class="st0" d="M359.2,239.1c-3.4,0-6.2,2.8-6.2,6.2v110.4h-66.5v-69.3c0-3.4-2.8-6.2-6.2-6.2h-48.6c-3.4,0-6.2,2.8-6.2,6.2
		v55c0,3.4,2.8,6.2,6.2,6.2c3.4,0,6.2-2.8,6.2-6.2v-48.8h36.2v63.1H159V204l97-77.7l99.3,79.6c2.7,2.1,6.6,1.7,8.7-1
		c2.1-2.7,1.7-6.6-1-8.7l-103.2-82.7c-2.3-1.8-5.5-1.8-7.8,0l-103.2,82.7c-1.5,1.2-2.3,3-2.3,4.8v160.9c0,3.4,2.8,6.2,6.2,6.2h206.4
		c3.4,0,6.2-2.8,6.2-6.2V245.3C365.4,241.9,362.6,239.1,359.2,239.1z"/>
</g>
<g>
	<path class="st1" d="M256,0C115.2,0,0,115.2,0,256s115.2,256,256,256s256-115.2,256-256S396.8,0,256,0z M256,479
		C133.3,479,33,378.7,33,256S133.3,33,256,33s223,100.3,223,223S378.7,479,256,479z"/>
</g>
<g>
	<path class="st1" d="M256,33C133.3,33,33,133.3,33,256s100.3,223,223,223s223-100.3,223-223S378.7,33,256,33z M256,460.8
		c-112.6,0-204.8-92.2-204.8-204.8S143.4,51.2,256,51.2S460.8,143.4,460.8,256S368.6,460.8,256,460.8z"/>
</g>
</svg>
