<?xml version="1.0" encoding="utf-8"?>
<!-- Generator: Adobe Illustrator 23.0.3, SVG Export Plug-In . SVG Version: 6.00 Build 0)  -->
<svg version="1.1" id="Capa_1" xmlns="http://www.w3.org/2000/svg" xmlns:xlink="http://www.w3.org/1999/xlink" x="0px" y="0px"
	 viewBox="0 0 512 512" style="enable-background:new 0 0 512 512;" xml:space="preserve">
<style type="text/css">
	.st0{fill:#FFFFFF;}
</style>
<path class="st0" d="M512,256C512,114.8,397.2,0,256,0S0,114.8,0,256c0,74.6,32.1,141.8,83.1,188.6l-0.2,0.2l8.3,7
	c0.5,0.5,1.1,0.8,1.7,1.3c4.4,3.7,9,7.1,13.6,10.5c1.5,1.1,3,2.2,4.5,3.2c5,3.4,10.1,6.7,15.3,9.8c1.1,0.7,2.3,1.3,3.4,2
	c5.7,3.2,11.5,6.3,17.5,9.1c0.4,0.2,0.9,0.4,1.3,0.6c19.4,9,40.2,15.7,61.9,19.6c0.6,0.1,1.1,0.2,1.7,0.3c6.7,1.2,13.6,2.1,20.5,2.7
	c0.8,0.1,1.7,0.1,2.5,0.2c6.9,0.6,13.8,0.9,20.8,0.9c7,0,13.8-0.4,20.7-0.9c0.9-0.1,1.7-0.1,2.6-0.2c6.8-0.6,13.6-1.5,20.3-2.7
	c0.6-0.1,1.2-0.2,1.7-0.3c21.4-3.8,41.8-10.3,61-19.1c0.7-0.3,1.4-0.6,2.1-1c5.7-2.7,11.4-5.6,16.9-8.7c1.4-0.8,2.7-1.6,4.1-2.4
	c5-3,9.9-6,14.7-9.3c1.7-1.2,3.4-2.4,5.1-3.6c4.1-2.9,8.1-6,12-9.1c0.9-0.7,1.8-1.3,2.7-2l8.5-7.1l-0.2-0.2
	C479.6,398.5,512,330.9,512,256z M388.9,420.1l-62.1-31c-7.1-3.5-11.5-10.6-11.5-18.5V343c1.8-2.2,3.8-4.8,5.8-7.6
	c10.2-14.4,18.4-30.4,24.3-47.7c11.8-5.6,19.4-17.3,19.4-30.6v-33c0-8.1-3-15.9-8.3-22v-43.5c0.5-4.8,2.2-32.1-17.5-54.6
	c-17.1-19.6-44.9-29.5-82.5-29.5c-37.6,0-65.4,9.9-82.5,29.5c-19.7,22.5-18,49.8-17.5,54.6V202c-5.3,6.2-8.3,14-8.3,22v33
	c0,10.2,4.6,19.8,12.5,26.3c7.5,29.5,23.1,51.9,28.8,59.5v26.9c0,7.6-4.2,14.6-10.8,18.2l-56.9,31c-47-38.7-76.9-97.4-76.9-163
	c0-116.6,94.5-211.2,211.2-211.2S467.2,139.4,467.2,256C467.2,322.3,436.7,381.4,388.9,420.1z"/>
</svg>
