<?xml version="1.0"?>
<svg xmlns="http://www.w3.org/2000/svg" height="512px" viewBox="-21 -54 681.33435 681" width="512px" class=""><g><path d="m633.964844 512.867188-270.871094-494.664063c-14.574219-26.621094-53.757812-27.140625-69.054688-.9375l-147.917968 253.9375c-8.117188 13.933594 13.578125 26.597656 21.707031 12.644531l147.914063-253.925781c5.636718-9.660156 19.949218-9.460937 25.320312.347656l270.867188 494.664063c5.246093 9.582031-1.839844 21.53125-12.757813 21.53125h-559.644531c-11.105469 0-18.152344-12.300782-12.558594-21.886719l90.050781-154.527344c8.117188-13.929687-13.574219-26.601562-21.707031-12.644531l-90.039062 154.515625c-15.171876 25.980469 4.277343 59.664063 34.253906 59.664063h559.644531c29.597656 0 49.078125-32.628907 34.792969-58.71875zm0 0" data-original="#000000" class="active-path" data-old_color="#A9A7A7" fill="#AAA9A9"/><path d="m323.15625 364.234375h.019531c17.078125 0 31.425781-13.34375 32.667969-30.382813l9.507812-130.679687c.65625-9.046875-2.503906-18.042969-8.683593-24.679687-6.175781-6.640626-14.917969-10.453126-23.988281-10.453126h-19.03125c-9.066407 0-17.808594 3.8125-23.984376 10.453126-6.175781 6.636718-9.34375 15.632812-8.679687 24.679687l9.507813 130.6875c1.238281 17.03125 15.589843 30.375 32.664062 30.375zm-15.097656-168.636719c.851562-.910156 2.695312-2.4375 5.589844-2.4375h19.03125c2.894531 0 4.746093 1.527344 5.589843 2.4375.847657.90625 2.230469 2.867188 2.023438 5.75l-9.507813 130.683594c-.289062 3.972656-3.632812 7.082031-7.613281 7.082031h-.019531c-3.976563 0-7.320313-3.109375-7.613282-7.082031l-9.507812-130.683594c-.203125-2.882812 1.1875-4.84375 2.027344-5.75.851562-.910156-.839844.90625 0 0zm0 0" data-original="#000000" class="active-path" data-old_color="#A9A7A7" fill="#AAA9A9"/><path d="m323.167969 478.957031c24.886719 0 45.136719-20.253906 45.136719-45.144531 0-24.886719-20.25-45.140625-45.136719-45.140625-24.894531 0-45.140625 20.253906-45.140625 45.140625 0 24.890625 20.246094 45.144531 45.140625 45.144531zm0-65.164062c11.039062 0 20.019531 8.984375 20.019531 20.019531 0 11.039062-8.980469 20.019531-20.019531 20.019531-11.039063 0-20.019531-8.980469-20.019531-20.019531 0-11.035156 8.980468-20.019531 20.019531-20.019531zm0 0" data-original="#000000" class="active-path" data-old_color="#A9A7A7" fill="#AAA9A9"/><path d="m130.976562 333.273438c6.820313 0 12.558594-5.734376 12.558594-12.558594 0-6.828125-5.742187-12.5625-12.558594-12.5625-6.632812 0-12.25 5.402344-12.539062 12.011718-.3125 7.023438 5.492188 13.109376 12.539062 13.109376zm0 0" data-original="#000000" class="active-path" data-old_color="#A9A7A7" fill="#AAA9A9"/></g> </svg>
